<?xml version="1.0" encoding="iso-8859-1"?>
<!-- Generator: Adobe Illustrator 19.0.0, SVG Export Plug-In . SVG Version: 6.00 Build 0)  -->
<svg version="1.1" id="Layer_1" xmlns="http://www.w3.org/2000/svg" xmlns:xlink="http://www.w3.org/1999/xlink" x="0px" y="0px"
	 viewBox="0 0 203 203" style="enable-background:new 0 0 203 203;" xml:space="preserve">
<g>
	<g>
		<g>
			<path d="M175.547,84.803l-49-7.761c-0.185-0.028-0.364,0.033-0.548,0.033c-0.184-0.001-0.362-0.062-0.545-0.033L77,84.717
				l-48.453-7.674c-1.005-0.155-2.04,0.133-2.82,0.796C24.948,78.504,24.5,79.476,24.5,80.5v111.239
				c0,1.721,1.251,3.187,2.953,3.457l49,7.761C76.634,202.986,76.819,203,77,203c0.181,0,0.366-0.014,0.547-0.043L126,195.283
				l48.453,7.674c0.181,0.029,0.365,0.043,0.547,0.043c0.827,0,1.634-0.294,2.273-0.839c0.779-0.665,1.227-1.637,1.227-2.661V88.261
				C178.5,86.54,177.249,85.073,175.547,84.803z M73.5,195.401l-42-6.651V84.598l42,6.651V195.401z M122.5,188.75l-42,6.651V91.25
				l42-6.651V188.75z M171.5,195.402l-42-6.651V84.598l42,6.651V195.402z"/>
			<path d="M91,56c6.46,0,12.399-2.22,17.142-5.909L129.5,71.449l4.949-4.949l-21.358-21.358C116.78,40.399,119,34.46,119,28
				c0-15.439-12.561-28-28-28S63,12.561,63,28S75.561,56,91,56z M91,7c11.58,0,21,9.42,21,21s-9.42,21-21,21s-21-9.42-21-21
				S79.42,7,91,7z"/>
		</g>
	</g>
</g>
<g>
</g>
<g>
</g>
<g>
</g>
<g>
</g>
<g>
</g>
<g>
</g>
<g>
</g>
<g>
</g>
<g>
</g>
<g>
</g>
<g>
</g>
<g>
</g>
<g>
</g>
<g>
</g>
<g>
</g>
</svg>
